<!-- Generator: Adobe Illustrator 20.1.0, SVG Export Plug-In  -->
<svg version="1.1"
	 xmlns="http://www.w3.org/2000/svg" xmlns:xlink="http://www.w3.org/1999/xlink" xmlns:a="http://ns.adobe.com/AdobeSVGViewerExtensions/3.0/"
	 x="0px" y="0px" width="200px" height="169px" viewBox="0 0 200 169" style="enable-background:new 0 0 200 169;"
	 xml:space="preserve">
<style type="text/css">
	.st0{fill:#008FDE;}
</style>
<defs>
</defs>
<g id="hatena_x5F_2_1_">
	<rect x="157.7" class="st0" width="39.4" height="112.7"/>
	<path class="st0" d="M121.2,90.5c-6.7-7.5-16-11.7-27.9-12.6c10.6-2.9,18.3-7.1,23.1-12.7c4.8-5.6,7.2-13.1,7.2-22.6
		c0-7.5-1.6-14.2-4.8-19.9c-3.3-5.7-8-10.3-14.1-13.7c-5.4-3-11.8-5.1-19.3-6.3C78,1.4,64.8,0.8,45.9,0.8H0v167.5h47.3
		c19,0,32.7-0.7,41.1-1.9c8.4-1.3,15.4-3.5,21.1-6.6c7-3.7,12.4-9,16.1-15.8c3.8-6.8,5.6-14.7,5.6-23.6
		C131.3,107.9,127.9,97.9,121.2,90.5z M42.4,37.9h9.8c11.3,0,18.9,1.3,22.9,3.8c3.9,2.6,5.9,7,5.9,13.3c0,6.1-2.1,10.3-6.3,12.8
		c-4.2,2.5-11.9,3.7-23.1,3.7h-9.1V37.9z M81.3,133.9c-4.5,2.7-12.1,4.1-22.9,4.1h-16v-36.6H59c11.1,0,18.7,1.4,22.8,4.2
		c4.1,2.8,6.2,7.7,6.2,14.8C88,126.7,85.8,131.2,81.3,133.9z"/>
	<path class="st0" d="M177.5,123.9c-12.5,0-22.5,10.1-22.5,22.5c0,12.5,10.1,22.5,22.5,22.5c12.4,0,22.5-10.1,22.5-22.5
		C200,134,189.9,123.9,177.5,123.9z"/>
</g>
</svg>