<!-- Generator: Adobe Illustrator 20.1.0, SVG Export Plug-In  -->
<svg version="1.1"
	 xmlns="http://www.w3.org/2000/svg" xmlns:xlink="http://www.w3.org/1999/xlink" xmlns:a="http://ns.adobe.com/AdobeSVGViewerExtensions/3.0/"
	 x="0px" y="0px" width="200px" height="200px" viewBox="0 0 200 200" style="enable-background:new 0 0 200 200;"
	 xml:space="preserve">
<style type="text/css">
	.st0{fill:#00C300;}
</style>
<defs>
</defs>
<path class="st0" d="M163.8,0.2L36.5,0C16.4,0,0.2,16.2,0.2,36.2L0,163.5c0,20,16.2,36.3,36.2,36.3l127.4,0.2
	c20,0,36.2-16.2,36.3-36.2L200,36.5C200,16.4,183.8,0.2,163.8,0.2z M157.2,127.9L157.2,127.9c-15.3,17-49.4,38.8-57.2,42.1
	c-7.8,3.3-6.6-2.2-6.3-4c0.2-1.1,1-6.3,1-6.3c0.2-1.9,0.5-4.8-0.2-6.6c-0.8-2-4-3.1-6.4-3.6c-35-4.6-60.9-29.1-60.9-58.3
	c0-32.6,32.7-59.1,72.8-59.1c40.1,0,72.8,26.7,72.8,59.3C172.8,104.4,167.8,115.9,157.2,127.9z M71.5,110.9H57.1
	c-2.1,0-3.7-1.9-3.7-4.1V77.9c0-2.1,1.4-3.8,3.5-3.8c2.1,0,3.5,1.7,3.5,3.8v25h11.1c2.1,0,3.8,1.9,3.8,4
	C75.3,109,73.6,110.9,71.5,110.9z M86.4,106.9c0,2.1-1.9,3.8-4,3.8c-2.1,0-4-1.7-4-3.8V77.9c0-2.1,1.9-3.8,4-3.8c2.1,0,4,1.7,4,3.8
	V106.9z M121.4,106.9c0,1.6-1.1,3.1-2.6,3.6c-0.4,0.1-0.8,0.2-1.2,0.2c-1.2,0-2.5-0.6-3.2-1.5L99.4,89v17.9c0,2.1-1.4,3.8-3.5,3.8
	c-2.1,0-3.5-1.7-3.5-3.8V77.9c0-1.6,0.9-3.1,2.4-3.6c0.4-0.1,0.7-0.2,1.1-0.2c1.2,0,2.1,0.6,2.8,1.5l14.6,20.2V77.9
	c0-2.1,1.9-3.8,4-3.8c2.1,0,4,1.7,4,3.8V106.9z M144.7,88.9c2.1,0,3.8,1.4,3.8,3.5c0,2.1-1.7,3.5-3.8,3.5h-10.3v7h10.3
	c2.1,0,3.8,1.9,3.8,4c0,2.1-1.7,4-3.8,4h-14.5c-2.1,0-3.9-1.9-3.9-4.1V92.4c0,0,0,0,0,0c0,0,0,0,0,0V77.9c0,0,0,0,0,0
	c0-2.1,1.8-4,3.9-4h14.5c2.1,0,3.8,1.9,3.8,4c0,2.1-1.7,4-3.8,4h-10.3v7H144.7z"/>
</svg>