<!-- Generator: Adobe Illustrator 20.1.0, SVG Export Plug-In  -->
<svg version="1.1"
	 xmlns="http://www.w3.org/2000/svg" xmlns:xlink="http://www.w3.org/1999/xlink" xmlns:a="http://ns.adobe.com/AdobeSVGViewerExtensions/3.0/"
	 x="0px" y="0px" width="200px" height="200px" viewBox="0 0 200 200" style="enable-background:new 0 0 200 200;"
	 xml:space="preserve">
<style type="text/css">
	.st0{fill:#00C300;}
	.st1{fill:#FFFFFF;}
</style>
<defs>
</defs>
<g id="line_1_">
	<path class="st0" d="M163.8,0.2L36.5,0C16.4,0,0.2,16.2,0.2,36.2L0,163.5c0,20,16.2,36.3,36.2,36.3l127.4,0.2
		c20,0,36.2-16.2,36.3-36.2L200,36.5C200,16.4,183.8,0.2,163.8,0.2z"/>
	<g>
		<g>
			<path class="st1" d="M172.8,91.2c0-32.6-32.7-59.1-72.8-59.1c-40.1,0-72.8,26.5-72.8,59.1c0,29.2,25.9,53.7,60.9,58.3
				c2.4,0.5,5.6,1.6,6.4,3.6c0.7,1.8,0.5,4.7,0.2,6.6c0,0-0.9,5.1-1,6.2c-0.3,1.8-1.5,7.2,6.3,3.9c7.8-3.3,41.9-24.7,57.2-42.3h0
				C167.8,116,172.8,104.2,172.8,91.2z M71.5,110.6H57.1c-2.1,0-3.8-1.7-3.8-3.8V77.8c0-2.1,1.7-3.8,3.8-3.8c2.1,0,3.8,1.7,3.8,3.8
				V103h10.7c2.1,0,3.8,1.7,3.8,3.8C75.3,108.9,73.6,110.6,71.5,110.6z M86.5,106.8c0,2.1-1.7,3.8-3.8,3.8c-2.1,0-3.8-1.7-3.8-3.8
				V77.8c0-2.1,1.7-3.8,3.8-3.8c2.1,0,3.8,1.7,3.8,3.8V106.8z M121.3,106.8c0,1.6-1,3.1-2.6,3.6c-0.4,0.1-0.8,0.2-1.2,0.2
				c-1.2,0-2.3-0.6-3.1-1.5L99.6,88.9v17.9c0,2.1-1.7,3.8-3.8,3.8c-2.1,0-3.8-1.7-3.8-3.8V77.8c0-1.6,1-3.1,2.6-3.6
				c0.4-0.1,0.8-0.2,1.2-0.2c1.2,0,2.3,0.6,3,1.5l14.8,20.2V77.8c0-2.1,1.7-3.8,3.8-3.8c2.1,0,3.8,1.7,3.8,3.8V106.8z M144.7,88.5
				c2.1,0,3.8,1.7,3.8,3.8c0,2.1-1.7,3.8-3.8,3.8h-10.6v6.8h10.6c2.1,0,3.8,1.7,3.8,3.8c0,2.1-1.7,3.8-3.8,3.8h-14.5
				c-2.1,0-3.8-1.7-3.8-3.8V92.3c0,0,0,0,0,0V77.8c0-2.1,1.7-3.8,3.8-3.8h14.5c2.1,0,3.8,1.7,3.8,3.8c0,2.1-1.7,3.8-3.8,3.8h-10.6
				v6.8H144.7z"/>
		</g>
	</g>
</g>
</svg>