<!-- Generator: Adobe Illustrator 20.1.0, SVG Export Plug-In  -->
<svg version="1.1"
	 xmlns="http://www.w3.org/2000/svg" xmlns:xlink="http://www.w3.org/1999/xlink" xmlns:a="http://ns.adobe.com/AdobeSVGViewerExtensions/3.0/"
	 x="0px" y="0px" width="224px" height="200px" viewBox="0 0 224 200" style="enable-background:new 0 0 224 200;"
	 xml:space="preserve">
<style type="text/css">
	.st0{fill:#E7364A;}
</style>
<defs>
</defs>
<path id="pocket_1_" class="st0" d="M222.9,13.4C219.9,5.4,212.3,0,203.8,0h-0.1h-19.3H20.3c-8.4,0-16,5.3-19,13.1
	C0.4,15.4,0,17.8,0,20.3v67.6l0.8,13.4c3.2,30.6,19.1,57.3,43.7,75.9c0.4,0.3,0.9,0.7,1.3,1l0.3,0.2c13.2,9.6,27.9,16.1,43.8,19.3
	c7.3,1.5,14.8,2.2,22.3,2.2c6.9,0,13.8-0.6,20.6-1.9c0.8-0.2,1.6-0.3,2.4-0.5c0.2,0,0.5-0.1,0.7-0.3c15.2-3.3,29.4-9.7,42-18.9
	l0.3-0.2c0.4-0.3,0.9-0.7,1.3-1c24.5-18.6,40.4-45.3,43.7-75.9l0.8-13.4V20.3C224,18,223.7,15.7,222.9,13.4z M175.4,83.8l-52.7,50.5
	c-3,2.8-6.8,4.3-10.6,4.3c-3.8,0-7.7-1.4-10.6-4.3L48.8,83.8c-6.1-5.9-6.3-15.6-0.5-21.7c5.9-6.1,15.6-6.3,21.7-0.5l42.1,40.3
	l42-40.3c6.1-5.9,15.8-5.7,21.7,0.4C181.8,68.2,181.6,77.9,175.4,83.8z"/>
</svg>