<!-- Generator: Adobe Illustrator 21.1.0, SVG Export Plug-In  -->
<svg version="1.1"
	 xmlns="http://www.w3.org/2000/svg" xmlns:xlink="http://www.w3.org/1999/xlink" xmlns:a="http://ns.adobe.com/AdobeSVGViewerExtensions/3.0/"
	 x="0px" y="0px" width="116.629px" height="200px" viewBox="0 0 116.629 200" style="enable-background:new 0 0 116.629 200;"
	 xml:space="preserve">
<defs>
</defs>
<g id="right_1_">
	<path d="M114.631,95.39L21.242,2.005C19.906,0.67,18.368,0,16.632,0c-1.737,0-3.274,0.67-4.609,2.005L2.004,12.026
		C0.666,13.362,0,14.896,0,16.635s0.666,3.274,2.004,4.609l78.757,78.757L2.004,178.761C0.666,180.097,0,181.634,0,183.368
		c0,1.739,0.666,3.276,2.004,4.612l10.019,10.017c1.336,1.337,2.873,2.003,4.609,2.003c1.736,0,3.273-0.668,4.609-2.003
		l93.384-93.385c1.335-1.335,2.003-2.873,2.003-4.609C116.629,98.266,115.966,96.728,114.631,95.39z"/>
</g>
</svg>