<!-- Generator: Adobe Illustrator 21.1.0, SVG Export Plug-In  -->
<svg version="1.1"
	 xmlns="http://www.w3.org/2000/svg" xmlns:xlink="http://www.w3.org/1999/xlink" xmlns:a="http://ns.adobe.com/AdobeSVGViewerExtensions/3.0/"
	 x="0px" y="0px" width="200px" height="116.629px" viewBox="0 0 200 116.629" style="enable-background:new 0 0 200 116.629;"
	 xml:space="preserve">
<defs>
</defs>
<g id="up_1_">
	<path d="M99.998,0c-1.737,0-3.274,0.668-4.609,2.003L2.003,95.387C0.668,96.723,0,98.261,0,99.996c0,1.737,0.666,3.274,2.003,4.609
		l10.017,10.019c1.336,1.338,2.873,2.004,4.612,2.004c1.734,0,3.272-0.666,4.607-2.004l78.759-78.757l78.757,78.757
		c1.336,1.338,2.87,2.004,4.609,2.004s3.274-0.666,4.609-2.004l10.021-10.018c1.335-1.336,2.005-2.873,2.005-4.609
		c0-1.736-0.67-3.274-2.005-4.61L104.61,1.998C103.272,0.663,101.734,0,99.998,0z"/>
</g>
</svg>