<!-- Generator: Adobe Illustrator 21.1.0, SVG Export Plug-In  -->
<svg version="1.1"
	 xmlns="http://www.w3.org/2000/svg" xmlns:xlink="http://www.w3.org/1999/xlink" xmlns:a="http://ns.adobe.com/AdobeSVGViewerExtensions/3.0/"
	 x="0px" y="0px" width="200px" height="116.629px" viewBox="0 0 200 116.629" style="enable-background:new 0 0 200 116.629;"
	 xml:space="preserve">
<defs>
</defs>
<g id="down_1_">
	<path d="M100.002,116.629c1.737,0,3.274-0.668,4.609-2.003l93.385-93.384c1.336-1.336,2.003-2.874,2.003-4.609
		c0-1.737-0.666-3.274-2.003-4.609L187.98,2.004C186.644,0.666,185.107,0,183.368,0c-1.734,0-3.272,0.666-4.607,2.004
		l-78.759,78.757L21.245,2.004C19.909,0.666,18.375,0,16.635,0c-1.739,0-3.274,0.666-4.609,2.004L2.005,12.022
		C0.67,13.358,0,14.895,0,16.632c0,1.736,0.67,3.274,2.005,4.61l93.384,93.389C96.728,115.966,98.266,116.629,100.002,116.629z"/>
</g>
</svg>