<!-- Generator: Adobe Illustrator 20.1.0, SVG Export Plug-In  -->
<svg version="1.1"
	 xmlns="http://www.w3.org/2000/svg" xmlns:xlink="http://www.w3.org/1999/xlink" xmlns:a="http://ns.adobe.com/AdobeSVGViewerExtensions/3.0/"
	 x="0px" y="0px" width="314.3px" height="200px" viewBox="0 0 314.3 200" style="enable-background:new 0 0 314.3 200;"
	 xml:space="preserve">
<style type="text/css">
	.st0{fill-rule:evenodd;clip-rule:evenodd;fill:#DB4E3F;}
</style>
<defs>
</defs>
<g id="googlepuls_1_">
	<path class="st0" d="M100,85.7V120h56.7c-2.3,14.7-17.1,43.1-56.7,43.1c-34.1,0-62-28.3-62-63.1c0-34.9,27.9-63.1,62-63.1
		c19.4,0,32.4,8.3,39.9,15.4L167,26.1C149.6,9.9,127,0,100,0C44.7,0,0,44.7,0,100c0,55.3,44.7,100,100,100c57.7,0,96-40.6,96-97.7
		c0-6.6-0.7-11.6-1.6-16.6H100L100,85.7L100,85.7z M100,85.7"/>
	<polygon class="st0" points="314.3,85.7 285.7,85.7 285.7,57.1 257.1,57.1 257.1,85.7 228.6,85.7 228.6,114.3 257.1,114.3
		257.1,142.9 285.7,142.9 285.7,114.3 314.3,114.3 	"/>
</g>
</svg>