<!-- Generator: Adobe Illustrator 21.1.0, SVG Export Plug-In  -->
<svg version="1.1"
	 xmlns="http://www.w3.org/2000/svg" xmlns:xlink="http://www.w3.org/1999/xlink" xmlns:a="http://ns.adobe.com/AdobeSVGViewerExtensions/3.0/"
	 x="0px" y="0px" width="233.334px" height="200px" viewBox="0 0 233.334 200" style="enable-background:new 0 0 233.334 200;"
	 xml:space="preserve">
<defs>
</defs>
<g id="hart_1_">
	<path d="M216.798,16.147C205.772,5.381,190.54,0,171.093,0c-5.382,0-10.874,0.933-16.472,2.798
		c-5.6,1.867-10.81,4.385-15.623,7.553c-4.82,3.167-8.962,6.142-12.436,8.919c-3.471,2.778-6.77,5.73-9.895,8.854
		c-3.126-3.124-6.425-6.076-9.896-8.854c-3.473-2.777-7.617-5.75-12.436-8.919c-4.818-3.17-10.027-5.686-15.625-7.553
		C73.112,0.934,67.621,0,62.239,0C42.794,0,27.56,5.382,16.536,16.147C5.512,26.91,0,41.84,0,60.937
		c0,5.816,1.022,11.807,3.061,17.968C5.1,85.068,7.423,90.321,10.027,94.66c2.603,4.339,5.555,8.572,8.854,12.695
		c3.299,4.124,5.709,6.964,7.227,8.528c1.519,1.561,2.713,2.69,3.581,3.384l81.249,78.387c1.563,1.564,3.472,2.346,5.729,2.346
		c2.257,0,4.168-0.782,5.73-2.343l81.12-78.127c19.879-19.877,29.818-39.409,29.818-58.593
		C233.335,41.84,227.821,26.91,216.798,16.147z"/>
</g>
</svg>