<!-- Generator: Adobe Illustrator 20.1.0, SVG Export Plug-In  -->
<svg version="1.1"
	 xmlns="http://www.w3.org/2000/svg" xmlns:xlink="http://www.w3.org/1999/xlink" xmlns:a="http://ns.adobe.com/AdobeSVGViewerExtensions/3.0/"
	 x="0px" y="0px" width="200px" height="200px" viewBox="0 0 200 200" style="enable-background:new 0 0 200 200;"
	 xml:space="preserve">
<defs>
</defs>
<g id="instagram_1_">
	<path d="M100,18c26.7,0,29.9,0.1,40.4,0.6c9.7,0.4,15,2.1,18.6,3.4c4.7,1.8,8,4,11.5,7.5c3.5,3.5,5.7,6.8,7.5,11.5
		c1.4,3.5,3,8.8,3.4,18.6c0.5,10.5,0.6,13.7,0.6,40.4s-0.1,29.9-0.6,40.4c-0.4,9.7-2.1,15-3.4,18.6c-1.8,4.7-4,8-7.5,11.5
		c-3.5,3.5-6.8,5.7-11.5,7.5c-3.5,1.4-8.8,3-18.6,3.4c-10.5,0.5-13.7,0.6-40.4,0.6s-29.9-0.1-40.4-0.6c-9.7-0.4-15-2.1-18.6-3.4
		c-4.7-1.8-8-4-11.5-7.5C26,167,23.9,163.6,22,159c-1.4-3.5-3-8.8-3.4-18.6C18.1,129.9,18,126.7,18,100s0.1-29.9,0.6-40.4
		c0.4-9.7,2.1-15,3.4-18.6c1.8-4.7,4-8,7.5-11.5C33,26,36.4,23.9,41,22c3.5-1.4,8.8-3,18.6-3.4C70.1,18.1,73.3,18,100,18 M100,0
		C72.8,0,69.4,0.1,58.8,0.6C48.1,1.1,40.9,2.8,34.5,5.2c-6.6,2.6-12.2,6-17.7,11.5c-5.6,5.6-9,11.1-11.5,17.7
		c-2.5,6.4-4.2,13.6-4.6,24.3C0.1,69.4,0,72.8,0,100c0,27.2,0.1,30.6,0.6,41.2c0.5,10.6,2.2,17.9,4.6,24.3c2.6,6.6,6,12.2,11.5,17.7
		c5.6,5.6,11.1,9,17.7,11.5c6.4,2.5,13.6,4.2,24.3,4.6c10.7,0.5,14.1,0.6,41.2,0.6s30.6-0.1,41.2-0.6c10.6-0.5,17.9-2.2,24.3-4.6
		c6.6-2.6,12.2-6,17.7-11.5c5.6-5.6,9-11.1,11.5-17.7c2.5-6.4,4.2-13.6,4.6-24.3c0.5-10.7,0.6-14.1,0.6-41.2s-0.1-30.6-0.6-41.2
		c-0.5-10.6-2.2-17.9-4.6-24.3c-2.6-6.6-6-12.2-11.5-17.7c-5.6-5.6-11.1-9-17.7-11.5c-6.4-2.5-13.6-4.2-24.3-4.6
		C130.6,0.1,127.2,0,100,0L100,0z"/>
	<path d="M100,48.6c-28.4,0-51.4,23-51.4,51.4s23,51.4,51.4,51.4s51.4-23,51.4-51.4S128.4,48.6,100,48.6z M100,133.3
		c-18.4,0-33.3-14.9-33.3-33.3S81.6,66.7,100,66.7s33.3,14.9,33.3,33.3S118.4,133.3,100,133.3z"/>
	<circle cx="153.4" cy="46.6" r="12"/>
</g>
</svg>