<!-- Generator: Adobe Illustrator 20.1.0, SVG Export Plug-In  -->
<svg version="1.1"
	 xmlns="http://www.w3.org/2000/svg" xmlns:xlink="http://www.w3.org/1999/xlink" xmlns:a="http://ns.adobe.com/AdobeSVGViewerExtensions/3.0/"
	 x="0px" y="0px" width="209.9px" height="200px" viewBox="0 0 209.9 200" style="enable-background:new 0 0 209.9 200;"
	 xml:space="preserve">
<style type="text/css">
	.st0{fill:#00C300;}
</style>
<defs>
</defs>
<path id="line_x5F_2_1_" class="st0" d="M187.4,137.6c15.2-16.7,22.5-33.6,22.5-52.4C209.9,38.2,162.8,0,105,0C47.1,0,0,38.2,0,85.2
	c0,42.1,37.3,77.4,87.8,84c3.4,0.7,8.1,2.3,9.2,5.2c1.1,2.6,0.7,6.8,0.3,9.5c0,0-1.2,7.4-1.5,9c-0.5,2.6-2.1,10.4,9.1,5.7
	C116.2,193.8,165.4,162.9,187.4,137.6L187.4,137.6 M63.9,113.1H43c-3,0-5.5-2.5-5.5-5.5V65.9c0-3,2.5-5.5,5.5-5.5
	c3,0,5.5,2.5,5.5,5.5v36.2h15.3c3,0,5.5,2.5,5.5,5.5C69.4,110.6,66.9,113.1,63.9,113.1z M85.4,107.6c0,3-2.5,5.5-5.5,5.5
	c-3,0-5.5-2.5-5.5-5.5V65.9c0-3,2.5-5.5,5.5-5.5c3,0,5.5,2.5,5.5,5.5V107.6z M135.6,107.6c0,2.4-1.5,4.5-3.8,5.2
	c-0.6,0.2-1.1,0.3-1.7,0.3c-1.7,0-3.4-0.8-4.4-2.2l-21.4-29.1v25.8c0,3-2.5,5.5-5.5,5.5c-3,0-5.5-2.5-5.5-5.5V65.9
	c0-2.4,1.5-4.5,3.8-5.2c0.6-0.2,1.2-0.3,1.7-0.3c1.7,0,3.4,0.8,4.4,2.2l21.4,29.1V65.9c0-3,2.5-5.5,5.5-5.5c3,0,5.5,2.5,5.5,5.5
	V107.6z M169.4,81.2c3,0,5.5,2.5,5.5,5.5c0,3-2.5,5.5-5.5,5.5H154v9.8h15.4c3,0,5.5,2.5,5.5,5.5c0,3-2.5,5.5-5.5,5.5h-20.9
	c-3,0-5.5-2.5-5.5-5.5V86.8c0,0,0,0,0,0c0,0,0,0,0,0V65.9c0,0,0,0,0,0c0-3,2.5-5.5,5.5-5.5h20.9c3,0,5.5,2.5,5.5,5.5
	c0,3-2.5,5.5-5.5,5.5H154v9.8H169.4z"/>
</svg>