<!-- Generator: Adobe Illustrator 21.1.0, SVG Export Plug-In  -->
<svg version="1.1"
	 xmlns="http://www.w3.org/2000/svg" xmlns:xlink="http://www.w3.org/1999/xlink" xmlns:a="http://ns.adobe.com/AdobeSVGViewerExtensions/3.0/"
	 x="0px" y="0px" width="233.336px" height="200px" viewBox="0 0 233.336 200" style="enable-background:new 0 0 233.336 200;"
	 xml:space="preserve">
<defs>
</defs>
<g id="link_1_">
	<g>
		<path d="M179.169,116.665h-8.334c-1.217,0-2.216,0.39-2.993,1.173c-0.784,0.779-1.173,1.777-1.173,2.993v41.667
			c0,5.73-2.039,10.633-6.118,14.714c-4.08,4.08-8.985,6.118-14.715,6.118H37.5c-5.729,0-10.634-2.038-14.715-6.118
			c-4.08-4.08-6.119-8.984-6.119-14.714V54.164c0-5.729,2.039-10.632,6.119-14.712c4.08-4.08,8.985-6.119,14.715-6.119h91.667
			c1.217,0,2.216-0.392,2.996-1.172c0.78-0.781,1.17-1.779,1.17-2.995V20.83c0-1.214-0.39-2.213-1.17-2.993
			c-0.78-0.781-1.779-1.171-2.996-1.171H37.5c-10.329,0-19.162,3.668-26.498,11.003C3.668,35.003,0,43.836,0,54.165V162.5
			c0,10.329,3.668,19.163,11.002,26.495C18.338,196.33,27.171,200,37.5,200h108.335c10.329,0,19.163-3.67,26.498-11.005
			c7.336-7.332,11.004-16.166,11.004-26.495v-41.665c0-1.217-0.39-2.216-1.174-2.996
			C181.382,117.055,180.383,116.665,179.169,116.665z"/>
		<path d="M230.86,2.474C229.211,0.824,227.255,0,225,0h-66.667c-2.257,0-4.211,0.824-5.859,2.474
			c-1.65,1.649-2.476,3.602-2.476,5.859s0.826,4.211,2.476,5.86L175.39,37.11l-84.895,84.897c-0.869,0.868-1.303,1.867-1.303,2.993
			c0,1.131,0.435,2.129,1.303,2.997l14.844,14.842c0.868,0.868,1.867,1.301,2.995,1.301c1.128,0,2.128-0.432,2.995-1.301
			l84.896-84.896l22.918,22.916c1.648,1.65,3.602,2.475,5.859,2.475c2.257,0,4.211-0.825,5.861-2.475
			c1.65-1.649,2.474-3.602,2.474-5.859V8.333C233.335,6.074,232.508,4.122,230.86,2.474z"/>
	</g>
</g>
</svg>