<!-- Generator: Adobe Illustrator 21.1.0, SVG Export Plug-In  -->
<svg version="1.1"
	 xmlns="http://www.w3.org/2000/svg" xmlns:xlink="http://www.w3.org/1999/xlink" xmlns:a="http://ns.adobe.com/AdobeSVGViewerExtensions/3.0/"
	 x="0px" y="0px" width="207.405px" height="200px" viewBox="0 0 207.405 200" style="enable-background:new 0 0 207.405 200;"
	 xml:space="preserve">
<defs>
</defs>
<g>
	<path d="M129.357,140.448c-5.117-0.814-5.236-14.888-5.236-14.888s15.04-14.888,18.318-34.908c8.816,0,14.261-21.283,5.443-28.772
		C148.251,53.998,159.217,0,103.703,0c-55.514,0-44.548,53.998-44.18,61.88c-8.818,7.489-3.373,28.772,5.444,28.772
		c3.278,20.02,18.317,34.908,18.317,34.908s-0.117,14.074-5.236,14.888C61.562,143.07,0,170.224,0,200h207.405
		C207.405,170.224,145.844,143.07,129.357,140.448L129.357,140.448z M129.357,140.448"/>
</g>
</svg>