<!-- Generator: Adobe Illustrator 21.1.0, SVG Export Plug-In  -->
<svg version="1.1"
	 xmlns="http://www.w3.org/2000/svg" xmlns:xlink="http://www.w3.org/1999/xlink" xmlns:a="http://ns.adobe.com/AdobeSVGViewerExtensions/3.0/"
	 x="0px" y="0px" width="311.117px" height="200px" viewBox="0 0 311.117 200" style="enable-background:new 0 0 311.117 200;"
	 xml:space="preserve">
<defs>
</defs>
<g id="eye_1_">
	<path d="M307.646,88.023c-16.206-26.505-37.997-47.802-65.368-63.889C214.904,8.045,185.999,0,155.559,0
		s-59.347,8.042-86.72,24.133C41.464,40.221,19.675,61.518,3.471,88.023C1.157,92.073,0,96.067,0,100.003s1.157,7.93,3.471,11.979
		c16.204,26.506,37.993,47.805,65.367,63.889c27.373,16.09,56.28,24.129,86.72,24.129c30.441,0,59.346-8.012,86.719-24.042
		c27.372-16.03,49.166-37.356,65.368-63.976c2.314-4.049,3.471-8.041,3.471-11.979C311.117,96.067,309.961,92.073,307.646,88.023z
		 M118.316,40.539c10.358-10.358,22.771-15.539,37.241-15.539c2.314,0,4.283,0.812,5.904,2.432c1.619,1.62,2.432,3.588,2.432,5.903
		c0,2.316-0.814,4.283-2.429,5.901c-1.619,1.622-3.589,2.432-5.903,2.432c-9.953,0-18.463,3.532-25.522,10.591
		c-7.062,7.063-10.591,15.569-10.591,25.522c0,2.317-0.812,4.283-2.432,5.905c-1.622,1.622-3.588,2.432-5.903,2.432
		c-2.316,0-4.283-0.811-5.905-2.432c-1.622-1.621-2.432-3.59-2.432-5.905C102.777,63.313,107.958,50.898,118.316,40.539z
		 M230.995,156.691c-23.207,14.059-48.352,21.093-75.437,21.093c-27.084,0-52.229-7.03-75.435-21.093
		c-23.206-14.063-42.506-32.959-57.9-56.688c17.593-27.316,39.642-47.746,66.147-61.286C81.311,50.753,77.78,63.775,77.78,77.779
		c0,21.415,7.612,39.726,22.83,54.949c15.219,15.222,33.537,22.83,54.949,22.83c21.413,0,39.726-7.612,54.949-22.83
		c15.222-15.218,22.831-33.534,22.831-54.949c0-14.004-3.532-27.028-10.592-39.062c26.504,13.539,48.554,33.971,66.146,61.286
		C273.501,123.732,254.203,142.627,230.995,156.691z"/>
</g>
</svg>